<svg xmlns="http://www.w3.org/2000/svg" xmlns:xlink="http://www.w3.org/1999/xlink" width="200" zoomAndPan="magnify" viewBox="0 0 150 37.5" height="50" preserveAspectRatio="xMidYMid meet" version="1.2"><defs/><g id="9085b83579"><g style="fill:#000000;fill-opacity:1;"><g transform="translate(12.747713, 23.766605)"><path style="stroke:none" d="M 3.875 -2.59375 C 1.914062 -4.726562 0.9375 -7.34375 0.9375 -10.4375 C 0.9375 -13.539062 1.914062 -16.164062 3.875 -18.3125 C 5.832031 -20.457031 8.320312 -21.53125 11.34375 -21.53125 C 14.113281 -21.53125 16.394531 -20.660156 18.1875 -18.921875 L 18.1875 -20.921875 L 25.40625 -20.921875 L 25.40625 0 L 18.265625 0 L 18.265625 -2.359375 L 18.1875 -2.359375 C 16.394531 -0.378906 14.113281 0.609375 11.34375 0.609375 C 8.320312 0.609375 5.832031 -0.457031 3.875 -2.59375 Z M 10.015625 -13.984375 C 9.078125 -13.054688 8.609375 -11.875 8.609375 -10.4375 C 8.609375 -9 9.054688 -7.820312 9.953125 -6.90625 C 10.847656 -6 12.03125 -5.546875 13.5 -5.546875 C 14.914062 -5.546875 16.078125 -6.003906 16.984375 -6.921875 C 17.898438 -7.847656 18.359375 -9.019531 18.359375 -10.4375 C 18.359375 -11.875 17.882812 -13.054688 16.9375 -13.984375 C 16 -14.910156 14.851562 -15.375 13.5 -15.375 C 12.113281 -15.375 10.953125 -14.910156 10.015625 -13.984375 Z M 10.015625 -13.984375 "/></g></g><g style="fill:#000000;fill-opacity:1;"><g transform="translate(36.757636, 23.766605)"><path style="stroke:none" d="M 2.453125 0 L 2.453125 -20.921875 L 9.671875 -20.921875 L 9.671875 -18.71875 L 9.75 -18.71875 C 11.625 -20.59375 13.617188 -21.53125 15.734375 -21.53125 C 17.265625 -21.53125 18.691406 -21.21875 20.015625 -20.59375 C 21.347656 -19.96875 22.359375 -19.003906 23.046875 -17.703125 C 25.160156 -20.253906 27.46875 -21.53125 29.96875 -21.53125 C 32.195312 -21.53125 34.113281 -20.90625 35.71875 -19.65625 C 37.320312 -18.40625 38.125 -16.445312 38.125 -13.78125 L 38.125 0 L 30.90625 0 L 30.90625 -11.828125 C 30.90625 -12.941406 30.597656 -13.867188 29.984375 -14.609375 C 29.378906 -15.359375 28.460938 -15.734375 27.234375 -15.734375 C 26.179688 -15.734375 25.375 -15.414062 24.8125 -14.78125 C 24.257812 -14.144531 23.953125 -13.378906 23.890625 -12.484375 L 23.890625 0 L 16.671875 0 L 16.671875 -11.828125 C 16.671875 -12.941406 16.363281 -13.867188 15.75 -14.609375 C 15.144531 -15.359375 14.234375 -15.734375 13.015625 -15.734375 C 11.898438 -15.734375 11.0625 -15.382812 10.5 -14.6875 C 9.945312 -14 9.671875 -13.179688 9.671875 -12.234375 L 9.671875 0 Z M 2.453125 0 "/></g></g><g style="fill:#000000;fill-opacity:1;"><g transform="translate(73.078814, 23.766605)"><path style="stroke:none" d="M 4.421875 -2.484375 C 2.097656 -4.554688 0.9375 -7.207031 0.9375 -10.4375 C 0.9375 -13.675781 2.144531 -16.332031 4.5625 -18.40625 C 6.988281 -20.488281 9.984375 -21.53125 13.546875 -21.53125 C 17.046875 -21.53125 20 -20.484375 22.40625 -18.390625 C 24.8125 -16.296875 26.015625 -13.644531 26.015625 -10.4375 C 26.015625 -7.226562 24.835938 -4.582031 22.484375 -2.5 C 20.140625 -0.425781 17.160156 0.609375 13.546875 0.609375 C 9.785156 0.609375 6.742188 -0.421875 4.421875 -2.484375 Z M 10.015625 -13.984375 C 9.078125 -13.054688 8.609375 -11.875 8.609375 -10.4375 C 8.609375 -9 9.054688 -7.820312 9.953125 -6.90625 C 10.847656 -6 12.03125 -5.546875 13.5 -5.546875 C 14.914062 -5.546875 16.078125 -6.003906 16.984375 -6.921875 C 17.898438 -7.847656 18.359375 -9.019531 18.359375 -10.4375 C 18.359375 -11.875 17.882812 -13.054688 16.9375 -13.984375 C 16 -14.910156 14.851562 -15.375 13.5 -15.375 C 12.113281 -15.375 10.953125 -14.910156 10.015625 -13.984375 Z M 10.015625 -13.984375 "/></g></g><g style="fill:#000000;fill-opacity:1;"><g transform="translate(96.191889, 23.766605)"><path style="stroke:none" d="M 2.453125 0 L 2.453125 -20.921875 L 9.671875 -20.921875 L 9.671875 -17.90625 L 9.75 -17.90625 C 9.800781 -18.007812 9.890625 -18.144531 10.015625 -18.3125 C 10.140625 -18.476562 10.40625 -18.765625 10.8125 -19.171875 C 11.21875 -19.578125 11.648438 -19.941406 12.109375 -20.265625 C 12.578125 -20.585938 13.175781 -20.878906 13.90625 -21.140625 C 14.632812 -21.398438 15.382812 -21.53125 16.15625 -21.53125 C 16.9375 -21.53125 17.707031 -21.421875 18.46875 -21.203125 C 19.226562 -20.984375 19.785156 -20.765625 20.140625 -20.546875 L 20.71875 -20.234375 L 17.703125 -14.109375 C 16.804688 -14.867188 15.554688 -15.25 13.953125 -15.25 C 13.078125 -15.25 12.328125 -15.054688 11.703125 -14.671875 C 11.078125 -14.296875 10.632812 -13.835938 10.375 -13.296875 C 10.113281 -12.753906 9.929688 -12.289062 9.828125 -11.90625 C 9.722656 -11.53125 9.671875 -11.234375 9.671875 -11.015625 L 9.671875 0 Z M 2.453125 0 "/></g></g><g style="fill:#000000;fill-opacity:1;"><g transform="translate(112.660145, 23.766605)"><path style="stroke:none" d="M 23.609375 -9.46875 L 8.4375 -9.46875 C 8.4375 -8 8.910156 -6.910156 9.859375 -6.203125 C 10.816406 -5.492188 11.851562 -5.140625 12.96875 -5.140625 C 14.132812 -5.140625 15.054688 -5.296875 15.734375 -5.609375 C 16.421875 -5.921875 17.195312 -6.539062 18.0625 -7.46875 L 23.28125 -4.859375 C 21.113281 -1.210938 17.5 0.609375 12.4375 0.609375 C 9.28125 0.609375 6.570312 -0.46875 4.3125 -2.625 C 2.0625 -4.789062 0.9375 -7.394531 0.9375 -10.4375 C 0.9375 -13.476562 2.0625 -16.085938 4.3125 -18.265625 C 6.570312 -20.441406 9.28125 -21.53125 12.4375 -21.53125 C 15.75 -21.53125 18.445312 -20.570312 20.53125 -18.65625 C 22.613281 -16.738281 23.65625 -14 23.65625 -10.4375 C 23.65625 -9.945312 23.640625 -9.625 23.609375 -9.46875 Z M 8.640625 -13.453125 L 16.59375 -13.453125 C 16.4375 -14.546875 16.007812 -15.382812 15.3125 -15.96875 C 14.625 -16.550781 13.734375 -16.84375 12.640625 -16.84375 C 11.441406 -16.84375 10.488281 -16.53125 9.78125 -15.90625 C 9.082031 -15.28125 8.703125 -14.460938 8.640625 -13.453125 Z M 8.640625 -13.453125 "/></g></g><g style="fill:#000000;fill-opacity:1;"><g transform="translate(53.774959, 34.814813)"><path style="stroke:none" d="M 2.421875 -5.359375 C 2.242188 -5.359375 2.109375 -5.300781 2.015625 -5.1875 C 1.929688 -5.082031 1.890625 -4.953125 1.890625 -4.796875 L 1.890625 -4.21875 L 2.703125 -4.21875 C 2.816406 -4.21875 2.90625 -4.179688 2.96875 -4.109375 C 3.039062 -4.046875 3.078125 -3.960938 3.078125 -3.859375 C 3.078125 -3.753906 3.039062 -3.671875 2.96875 -3.609375 C 2.90625 -3.546875 2.816406 -3.515625 2.703125 -3.515625 L 1.890625 -3.515625 L 1.890625 -0.390625 C 1.890625 -0.285156 1.851562 -0.191406 1.78125 -0.109375 C 1.707031 -0.0351562 1.613281 0 1.5 0 C 1.394531 0 1.300781 -0.0351562 1.21875 -0.109375 C 1.144531 -0.191406 1.109375 -0.285156 1.109375 -0.390625 L 1.109375 -3.515625 L 0.609375 -3.515625 C 0.503906 -3.515625 0.414062 -3.546875 0.34375 -3.609375 C 0.269531 -3.671875 0.234375 -3.753906 0.234375 -3.859375 C 0.234375 -3.960938 0.269531 -4.046875 0.34375 -4.109375 C 0.414062 -4.179688 0.503906 -4.21875 0.609375 -4.21875 L 1.109375 -4.21875 L 1.109375 -4.796875 C 1.109375 -5.179688 1.234375 -5.484375 1.484375 -5.703125 C 1.734375 -5.929688 2.082031 -6.046875 2.53125 -6.046875 C 2.71875 -6.046875 2.878906 -6.007812 3.015625 -5.9375 C 3.160156 -5.875 3.234375 -5.773438 3.234375 -5.640625 C 3.234375 -5.535156 3.203125 -5.445312 3.140625 -5.375 C 3.078125 -5.3125 3 -5.28125 2.90625 -5.28125 C 2.882812 -5.28125 2.828125 -5.289062 2.734375 -5.3125 C 2.609375 -5.34375 2.503906 -5.359375 2.421875 -5.359375 Z M 2.421875 -5.359375 "/></g></g><g style="fill:#000000;fill-opacity:1;"><g transform="translate(62.324367, 34.814813)"><path style="stroke:none" d="M 4.0625 -4.359375 C 4.175781 -4.359375 4.269531 -4.320312 4.34375 -4.25 C 4.425781 -4.175781 4.46875 -4.078125 4.46875 -3.953125 L 4.46875 -0.390625 C 4.46875 -0.285156 4.425781 -0.191406 4.34375 -0.109375 C 4.269531 -0.0351562 4.175781 0 4.0625 0 C 3.945312 0 3.851562 -0.0351562 3.78125 -0.109375 C 3.71875 -0.179688 3.6875 -0.273438 3.6875 -0.390625 L 3.6875 -0.609375 C 3.539062 -0.410156 3.34375 -0.242188 3.09375 -0.109375 C 2.851562 0.015625 2.59375 0.078125 2.3125 0.078125 C 1.9375 0.078125 1.597656 -0.015625 1.296875 -0.203125 C 0.992188 -0.390625 0.753906 -0.65625 0.578125 -1 C 0.398438 -1.34375 0.3125 -1.726562 0.3125 -2.15625 C 0.3125 -2.582031 0.398438 -2.96875 0.578125 -3.3125 C 0.753906 -3.65625 0.988281 -3.921875 1.28125 -4.109375 C 1.582031 -4.296875 1.914062 -4.390625 2.28125 -4.390625 C 2.570312 -4.390625 2.84375 -4.328125 3.09375 -4.203125 C 3.34375 -4.085938 3.539062 -3.9375 3.6875 -3.75 L 3.6875 -3.953125 C 3.6875 -4.066406 3.71875 -4.160156 3.78125 -4.234375 C 3.851562 -4.316406 3.945312 -4.359375 4.0625 -4.359375 Z M 2.390625 -0.640625 C 2.648438 -0.640625 2.878906 -0.703125 3.078125 -0.828125 C 3.273438 -0.960938 3.429688 -1.144531 3.546875 -1.375 C 3.660156 -1.601562 3.71875 -1.863281 3.71875 -2.15625 C 3.71875 -2.4375 3.660156 -2.691406 3.546875 -2.921875 C 3.429688 -3.148438 3.273438 -3.332031 3.078125 -3.46875 C 2.878906 -3.601562 2.648438 -3.671875 2.390625 -3.671875 C 2.140625 -3.671875 1.910156 -3.601562 1.703125 -3.46875 C 1.503906 -3.34375 1.347656 -3.164062 1.234375 -2.9375 C 1.128906 -2.707031 1.078125 -2.445312 1.078125 -2.15625 C 1.078125 -1.863281 1.128906 -1.601562 1.234375 -1.375 C 1.347656 -1.144531 1.503906 -0.960938 1.703125 -0.828125 C 1.910156 -0.703125 2.140625 -0.640625 2.390625 -0.640625 Z M 2.390625 -0.640625 "/></g></g><g style="fill:#000000;fill-opacity:1;"><g transform="translate(72.710942, 34.814813)"><path style="stroke:none" d="M 2.453125 -4.390625 C 2.878906 -4.390625 3.238281 -4.320312 3.53125 -4.1875 C 3.820312 -4.050781 3.96875 -3.878906 3.96875 -3.671875 C 3.96875 -3.578125 3.9375 -3.492188 3.875 -3.421875 C 3.8125 -3.347656 3.734375 -3.3125 3.640625 -3.3125 C 3.566406 -3.3125 3.507812 -3.320312 3.46875 -3.34375 C 3.425781 -3.363281 3.375 -3.394531 3.3125 -3.4375 C 3.269531 -3.476562 3.21875 -3.519531 3.15625 -3.5625 C 3.082031 -3.59375 2.984375 -3.617188 2.859375 -3.640625 C 2.742188 -3.660156 2.640625 -3.671875 2.546875 -3.671875 C 2.253906 -3.671875 2 -3.601562 1.78125 -3.46875 C 1.5625 -3.34375 1.390625 -3.160156 1.265625 -2.921875 C 1.148438 -2.691406 1.09375 -2.4375 1.09375 -2.15625 C 1.09375 -1.863281 1.148438 -1.601562 1.265625 -1.375 C 1.390625 -1.144531 1.554688 -0.960938 1.765625 -0.828125 C 1.984375 -0.703125 2.226562 -0.640625 2.5 -0.640625 C 2.78125 -0.640625 3.007812 -0.679688 3.1875 -0.765625 C 3.226562 -0.785156 3.28125 -0.820312 3.34375 -0.875 C 3.394531 -0.914062 3.441406 -0.945312 3.484375 -0.96875 C 3.523438 -1 3.578125 -1.015625 3.640625 -1.015625 C 3.753906 -1.015625 3.84375 -0.976562 3.90625 -0.90625 C 3.96875 -0.832031 4 -0.742188 4 -0.640625 C 4 -0.523438 3.925781 -0.410156 3.78125 -0.296875 C 3.632812 -0.179688 3.4375 -0.0859375 3.1875 -0.015625 C 2.945312 0.046875 2.6875 0.078125 2.40625 0.078125 C 1.988281 0.078125 1.625 -0.015625 1.3125 -0.203125 C 1 -0.398438 0.753906 -0.671875 0.578125 -1.015625 C 0.398438 -1.359375 0.3125 -1.738281 0.3125 -2.15625 C 0.3125 -2.570312 0.398438 -2.953125 0.578125 -3.296875 C 0.765625 -3.640625 1.019531 -3.90625 1.34375 -4.09375 C 1.664062 -4.289062 2.035156 -4.390625 2.453125 -4.390625 Z M 2.453125 -4.390625 "/></g></g><g style="fill:#000000;fill-opacity:1;"><g transform="translate(82.277348, 34.814813)"><path style="stroke:none" d="M 4.359375 -2.3125 C 4.347656 -2.21875 4.304688 -2.132812 4.234375 -2.0625 C 4.160156 -1.988281 4.070312 -1.953125 3.96875 -1.953125 L 1.078125 -1.953125 C 1.109375 -1.554688 1.253906 -1.238281 1.515625 -1 C 1.785156 -0.757812 2.113281 -0.640625 2.5 -0.640625 C 2.757812 -0.640625 2.972656 -0.675781 3.140625 -0.75 C 3.304688 -0.832031 3.453125 -0.929688 3.578125 -1.046875 C 3.660156 -1.097656 3.738281 -1.125 3.8125 -1.125 C 3.90625 -1.125 3.984375 -1.085938 4.046875 -1.015625 C 4.109375 -0.953125 4.140625 -0.878906 4.140625 -0.796875 C 4.140625 -0.679688 4.085938 -0.578125 3.984375 -0.484375 C 3.816406 -0.328125 3.601562 -0.191406 3.34375 -0.078125 C 3.082031 0.0234375 2.816406 0.078125 2.546875 0.078125 C 2.097656 0.078125 1.707031 -0.0078125 1.375 -0.1875 C 1.039062 -0.375 0.78125 -0.632812 0.59375 -0.96875 C 0.40625 -1.300781 0.3125 -1.679688 0.3125 -2.109375 C 0.3125 -2.566406 0.40625 -2.96875 0.59375 -3.3125 C 0.789062 -3.664062 1.039062 -3.929688 1.34375 -4.109375 C 1.65625 -4.296875 1.988281 -4.390625 2.34375 -4.390625 C 2.695312 -4.390625 3.023438 -4.300781 3.328125 -4.125 C 3.640625 -3.945312 3.882812 -3.695312 4.0625 -3.375 C 4.25 -3.0625 4.347656 -2.707031 4.359375 -2.3125 Z M 2.34375 -3.671875 C 2.039062 -3.671875 1.773438 -3.582031 1.546875 -3.40625 C 1.328125 -3.238281 1.179688 -2.972656 1.109375 -2.609375 L 3.53125 -2.609375 L 3.53125 -2.6875 C 3.5 -2.96875 3.363281 -3.203125 3.125 -3.390625 C 2.894531 -3.578125 2.632812 -3.671875 2.34375 -3.671875 Z M 2.34375 -3.671875 "/></g></g><g style="fill:#000000;fill-opacity:1;"><g transform="translate(92.303044, 34.814813)"><path style="stroke:none" d="M 0.34375 -0.671875 C 0.289062 -0.742188 0.265625 -0.816406 0.265625 -0.890625 C 0.265625 -1.003906 0.320312 -1.097656 0.4375 -1.171875 C 0.488281 -1.210938 0.550781 -1.234375 0.625 -1.234375 C 0.71875 -1.234375 0.804688 -1.191406 0.890625 -1.109375 C 1.054688 -0.921875 1.234375 -0.78125 1.421875 -0.6875 C 1.609375 -0.59375 1.832031 -0.546875 2.09375 -0.546875 C 2.300781 -0.554688 2.484375 -0.601562 2.640625 -0.6875 C 2.804688 -0.78125 2.890625 -0.925781 2.890625 -1.125 C 2.890625 -1.3125 2.804688 -1.453125 2.640625 -1.546875 C 2.484375 -1.648438 2.25 -1.742188 1.9375 -1.828125 C 1.625 -1.910156 1.367188 -1.992188 1.171875 -2.078125 C 0.972656 -2.171875 0.800781 -2.300781 0.65625 -2.46875 C 0.519531 -2.644531 0.453125 -2.875 0.453125 -3.15625 C 0.453125 -3.40625 0.519531 -3.617188 0.65625 -3.796875 C 0.800781 -3.984375 0.988281 -4.128906 1.21875 -4.234375 C 1.445312 -4.335938 1.703125 -4.390625 1.984375 -4.390625 C 2.242188 -4.390625 2.503906 -4.335938 2.765625 -4.234375 C 3.023438 -4.140625 3.234375 -3.992188 3.390625 -3.796875 C 3.460938 -3.722656 3.5 -3.644531 3.5 -3.5625 C 3.5 -3.46875 3.453125 -3.382812 3.359375 -3.3125 C 3.304688 -3.257812 3.238281 -3.234375 3.15625 -3.234375 C 3.0625 -3.234375 2.984375 -3.265625 2.921875 -3.328125 C 2.804688 -3.460938 2.664062 -3.5625 2.5 -3.625 C 2.332031 -3.695312 2.144531 -3.734375 1.9375 -3.734375 C 1.726562 -3.734375 1.550781 -3.691406 1.40625 -3.609375 C 1.269531 -3.523438 1.203125 -3.382812 1.203125 -3.1875 C 1.203125 -2.988281 1.28125 -2.84375 1.4375 -2.75 C 1.601562 -2.65625 1.851562 -2.566406 2.1875 -2.484375 C 2.476562 -2.410156 2.71875 -2.328125 2.90625 -2.234375 C 3.101562 -2.148438 3.265625 -2.019531 3.390625 -1.84375 C 3.523438 -1.675781 3.59375 -1.453125 3.59375 -1.171875 C 3.59375 -0.910156 3.519531 -0.6875 3.375 -0.5 C 3.226562 -0.3125 3.035156 -0.164062 2.796875 -0.0625 C 2.554688 0.03125 2.300781 0.078125 2.03125 0.078125 C 1.6875 0.078125 1.367188 0.0195312 1.078125 -0.09375 C 0.785156 -0.21875 0.539062 -0.410156 0.34375 -0.671875 Z M 0.34375 -0.671875 "/></g></g></g></svg>